<?xml version="1.0" standalone="no"?>
<!DOCTYPE svg PUBLIC "-//W3C//DTD SVG 20010904//EN"
 "http://www.w3.org/TR/2001/REC-SVG-20010904/DTD/svg10.dtd">
<svg version="1.0" xmlns="http://www.w3.org/2000/svg"
 width="173.000000pt" height="172.000000pt" viewBox="0 0 173.000000 172.000000"
 preserveAspectRatio="xMidYMid meet">
<metadata>
Created by potrace 1.15, written by Peter Selinger 2001-2017
</metadata>
<g transform="translate(0.000000,172.000000) scale(0.100000,-0.100000)"
fill="#000000" stroke="none">
<path d="M690 1701 c-363 -78 -636 -378 -675 -745 l-7 -66 70 0 70 0 7 57 c20
163 86 295 210 418 124 125 260 192 424 211 l61 7 0 68 0 69 -37 -1 c-21 0
-76 -9 -123 -18z"/>
<path d="M890 1652 l0 -69 64 -6 c228 -21 464 -189 566 -402 34 -71 70 -200
70 -252 l0 -33 71 0 70 0 -6 58 c-11 96 -35 183 -76 270 -130 282 -384 462
-696 496 l-63 7 0 -69z"/>
<path d="M641 1402 c-6 -21 -13 -52 -17 -69 l-6 -30 -101 -7 c-55 -3 -102 -8
-105 -10 -2 -3 24 -90 57 -194 34 -105 61 -194 61 -198 0 -5 -24 -25 -52 -44
l-52 -35 69 -3 c49 -2 72 -8 80 -19 11 -15 18 -13 65 17 50 32 51 34 29 42
l-23 9 29 24 c39 31 49 31 41 -1 -6 -24 -2 -22 69 26 41 28 75 49 75 47 0 -2
-90 -86 -200 -187 -110 -101 -200 -186 -200 -189 0 -3 24 -23 53 -44 100 -73
97 -57 33 -132 -31 -36 -56 -70 -56 -75 0 -14 84 -60 156 -86 182 -66 402 -44
569 57 151 92 266 249 304 418 l8 38 -153 117 -153 118 -32 97 c-17 53 -35
100 -40 105 -5 6 -18 2 -31 -11 -43 -38 -48 -35 -28 11 l19 46 -60 -31 -61
-30 -71 55 c-40 30 -116 89 -169 131 l-97 76 -10 -39z"/>
<path d="M15 783 c16 -139 71 -290 146 -400 139 -203 371 -339 627 -367 l62
-7 0 69 0 69 -64 6 c-228 21 -464 189 -566 402 -34 71 -70 200 -70 252 l0 33
-71 0 -70 0 6 -57z"/>
<path d="M1585 783 c-20 -163 -86 -295 -210 -418 -124 -125 -260 -192 -424
-211 l-61 -7 0 -68 0 -69 29 0 c50 0 192 31 260 56 295 111 513 393 546 708
l7 66 -70 0 -70 0 -7 -57z"/>
</g>
</svg>
